<svg width="700" height="700" xmlns="http://www.w3.org/2000/svg" data-name="Layer 1">

 <g>
  <title>Layer 1</title>
  <g id="svg_38">
   <path id="svg_17" fill="#d0cde1" d="m350.58447,554.99999c-1.9956,-0.01562 -4.01416,-0.02929 -5.99658,-0.09082l0.06153,-1.999c1.96191,0.06055 3.96826,0.08789 5.93554,0.08984c1.97608,0 3.98975,-0.03222 5.98731,-0.09668l0.06445,1.99805c-2.01953,0.06541 -4.05518,0.09861 -6.05225,0.09861zm-18.019,-0.84472c-3.98144,-0.377 -8.00244,-0.8877 -11.95068,-1.51758l0.31543,-1.97461c3.90625,0.62305 7.88428,1.12891 11.82373,1.502l-0.18848,1.99019zm36.09229,-0.02149l-0.19043,-1.99023c3.938,-0.377 7.91552,-0.8877 11.82177,-1.5166l0.31836,1.97461c-3.94877,0.63574 -7.96927,1.15136 -11.94974,1.53222l0.00004,0zm-59.87256,-3.77832c-3.89844,-0.88379 -7.8208,-1.90722 -11.65772,-3.041l0.5669,-1.918c3.7959,1.12207 7.67627,2.13379 11.5332,3.00781l-0.44238,1.95119zm83.64844,-0.0498l-0.44434,-1.94922c3.86572,-0.88184 7.74512,-1.89844 11.52978,-3.02246l0.56934,1.918c-3.82572,1.13571 -7.74711,2.16305 -11.65482,3.05368l0.00004,0zm-106.74512,-6.77637c-3.76172,-1.38184 -7.52539,-2.90332 -11.18652,-4.52344l0.80957,-1.82812c3.62158,1.60156 7.34472,3.10742 11.0664,4.47461l-0.68945,1.87695zm129.833,-0.07812l-0.69141,-1.877c3.69873,-1.3623 7.40918,-2.86719 11.02783,-4.47265l0.81153,1.82812c-3.65873,1.62309 -7.40921,3.14457 -11.14798,4.52153l0.00003,0zm-151.88721,-9.67969c-3.54,-1.84766 -7.0752,-3.83985 -10.50635,-5.91992l1.03711,-1.71094c3.395,2.05957 6.89209,4.0293 10.39453,5.85742l-0.92529,1.77344zm173.87256,-0.07324l-0.92578,-1.77247c3.49414,-1.82714 6.9834,-3.79687 10.36914,-5.85449l1.03906,1.709c-3.42288,2.08006 -6.94925,4.0703 -10.48245,5.91796l0.00003,0zm-194.48148,-12.42676c-3.27881,-2.28809 -6.52832,-4.71485 -9.65918,-7.21094l1.24707,-1.56445c3.09766,2.4707 6.313,4.87109 9.55664,7.13476l-1.14453,1.64063zm215.04981,-0.07129l-1.14649,-1.63867c3.24317,-2.2666 6.4541,-4.667 9.54395,-7.13477l1.24805,1.5625c-3.12305,2.49414 -6.36817,4.91992 -9.64551,7.21094zm-233.88721,-14.95313c-2.96387,-2.69043 -5.87793,-5.50976 -8.65967,-8.37793l1.43555,-1.39257c2.75244,2.83789 5.63574,5.627 8.56885,8.29l-1.34473,1.4805zm252.70166,-0.06933l-1.3457,-1.48047c2.92578,-2.65723 5.80664,-5.44824 8.56347,-8.293l1.43555,1.39063c-2.78516,2.87597 -5.69726,5.69631 -8.65332,8.38284zm-269.46875,-17.21875c-2.59521,-3.043 -5.12549,-6.208 -7.52148,-9.40723l1.60107,-1.19922c2.37061,3.166 4.874,6.29785 7.44189,9.30762l-1.52148,1.29883zm286.22754,-0.083l-1.52148,-1.29688c2.56738,-3.01269 5.07128,-6.14843 7.4414,-9.31835l1.60156,1.19726c-2.3955,3.20409 -4.92582,6.37304 -7.52148,9.41796l0,0.00001zm-300.65381,-19.19142c-2.188,-3.35058 -4.29346,-6.81054 -6.2583,-10.28418l1.74121,-0.98437c1.94336,3.43652 4.02686,6.86035 6.1919,10.1748l-1.67481,1.09375zm315.08252,-0.10839l-1.67578,-1.0918c2.166,-3.32129 4.249,-6.751 6.19336,-10.19531l1.74219,0.98242c-1.96482,3.48238 -4.07129,6.94922 -6.25977,10.30469zm-326.92578,-20.8379c-1.74024,-3.5996 -3.38428,-7.29882 -4.88623,-10.99609l1.85254,-0.752c1.48633,3.65625 3.11279,7.3164 4.83447,10.877l-1.80078,0.87109zm338.77246,-0.15625l-1.80073,-0.86916c1.7207,-3.5664 3.34766,-7.23632 4.83594,-10.91015l1.85351,0.75c-1.50395,3.71388 -3.14845,7.42482 -4.88872,11.02931zm-347.8335,-22.1416c-1.26513,-3.79883 -2.42089,-7.68457 -3.43554,-11.5498l1.93457,-0.50781c1.00342,3.82324 2.147,7.668 3.39843,11.4248l-1.89746,0.63281zm356.88916,-0.21191l-1.89843,-0.62891c1.24414,-3.75293 2.38379,-7.59863 3.38476,-11.42968l1.93555,0.50585c-1.0127,3.87309 -2.16406,7.75977 -3.42188,11.55274zm-363.00781,-23.082c-0.76416,-3.92383 -1.41064,-7.92481 -1.92187,-11.89258l1.9834,-0.25586c0.50585,3.92578 1.1455,7.88379 1.90136,11.76563l-1.96289,0.38281zm369.09863,-0.21973l-1.96289,-0.37891c0.75,-3.88085 1.38575,-7.84082 1.88672,-11.76953l1.98438,0.25391c-0.50684,3.97067 -1.14942,7.97261 -1.90821,11.8945l0,0.00003zm-372.17675,-23.66311c-0.25635,-3.98633 -0.38868,-8.03809 -0.39307,-12.043l2,-0.002c0.00439,3.96289 0.13525,7.97168 0.38916,11.916l-1.99609,0.129zm375.22754,-0.22364l-1.9961,-0.12695c0.249,-3.94043 0.375,-7.94922 0.375,-11.91309l-0.001,-0.43847l2,0l0.001,0.43164c0,4.0127 -0.1279,8.06347 -0.3789,12.04687zm-373.25928,-23.73535l-1.9961,-0.123c0.248,-3.99414 0.62745,-8.02929 1.12793,-11.99414l1.98438,0.25c-0.49561,3.92378 -0.87109,7.91597 -1.11621,11.86714zm371.23584,-0.65625c-0.25977,-3.95312 -0.64942,-7.94434 -1.1582,-11.8623l1.98242,-0.25782c0.51465,3.96 0.90918,7.99317 1.17187,11.98926l-1.99609,0.13086zm-368.24656,-22.98047l-1.96387,-0.37793c0.75439,-3.92529 1.648,-7.8789 2.65478,-11.751l1.93555,0.50293c-0.99611,3.83108 -1.8799,7.74221 -2.62646,11.626zm365.17138,-0.645c-0.76172,-3.88574 -1.66015,-7.79394 -2.668,-11.6167l1.9336,-0.50976c1.01953,3.86377 1.92676,7.814 2.69726,11.7417l-1.96286,0.38476zm-359.17287,-22.41359l-1.89941,-0.627c1.25537,-3.8003 2.65283,-7.61231 4.15429,-11.33057l1.8545,0.749c-1.48536,3.67829 -2.86768,7.44929 -4.10938,11.20857zm353.09473,-0.62354c-1.25586,-3.7539 -2.64942,-7.51416 -4.14258,-11.17675l1.85156,-0.75489c1.50977,3.70215 2.91895,7.50293 4.1875,11.29688l-1.89648,0.63476zm-344.16113,-21.50297l-1.80274,-0.86718c1.73486,-3.60645 3.61084,-7.20508 5.5752,-10.69532l1.74316,0.98145c-1.94385,3.45268 -3.79932,7.01273 -5.51562,10.58105zm335.17187,-0.54541c-1.72266,-3.55127 -3.585,-7.09814 -5.53809,-10.542l1.74024,-0.98633c1.97363,3.48047 3.85644,7.06592 5.59668,10.65625l-1.79883,0.87208zm-323.47461,-20.23921l-1.67676,-1.09082c2.18116,-3.35254 4.501,-6.68018 6.89453,-9.88965l1.60352,1.19531c-2.36816,3.17578 -4.66357,6.46778 -6.82129,9.78516zm311.73242,-0.47071c-2.16406,-3.30517 -4.46582,-6.58691 -6.84277,-9.7539l1.59961,-1.2002c2.40234,3.20117 4.72949,6.51807 6.917,9.8584l-1.67384,1.0957zm-297.48047,-18.64111l-1.52343,-1.29492c2.59033,-3.04737 5.31347,-6.05127 8.09375,-8.92774l1.43847,1.38965c-2.75097,2.84619 -5.44531,5.81836 -8.00879,8.83301zm283.18457,-0.41211c-2.57128,-3.00635 -5.27441,-5.96973 -8.03222,-8.80762l1.43359,-1.39355c2.78809,2.86767 5.51953,5.86279 8.11817,8.90137l-1.51954,1.2998zm-266.62255,-16.7251l-1.34668,-1.47851c2.95947,-2.6958 6.0415,-5.32813 9.15966,-7.82325l1.25,1.56153c-3.08545,2.46875 -6.13476,5.07324 -9.06298,7.74023zm250.01123,-0.36279c-2.93262,-2.65479 -5.99024,-5.25147 -9.08985,-7.71729l1.2461,-1.56543c3.13183,2.49268 6.22265,5.1167 9.18554,7.8003l-1.34179,1.48242zm-231.41257,-14.52344l-1.14746,-1.63769c3.27246,-2.29346 6.66308,-4.51075 10.07763,-6.59082l1.04053,1.708c-3.37796,2.05811 -6.73294,4.25196 -9.9707,6.52051zm212.7583,-0.31836c-3.25586,-2.26611 -6.62109,-4.45263 -10.00293,-6.499l1.03516,-1.71094c3.418,2.06787 6.82031,4.27783 10.11035,6.56836l-1.14258,1.64158zm-192.42435,-12.06933l-0.92871,-1.77149c3.53565,-1.85449 7.18018,-3.61914 10.83106,-5.24463l0.81347,1.82715c-3.6123,1.60791 -7.21728,3.35401 -10.71582,5.18897zm172.02,-0.27442c-3.5122,-1.82812 -7.13135,-3.56592 -10.75781,-5.16553l0.80762,-1.83007c3.665,1.6167 7.32373,3.37353 10.874,5.22119l-0.92381,1.77441zm-150.28125,-9.40088l-0.69433,-1.876c3.75,-1.38721 7.59521,-2.67041 11.4292,-3.81348l0.57128,1.917c-3.79294,1.13035 -7.59666,2.39992 -11.30613,3.77248l-0.00002,0zm128.45166,-0.22705c-3.71728,-1.35986 -7.52588,-2.61572 -11.31982,-3.73193l0.56445,-1.919c3.835,1.12842 7.68506,2.398 11.44287,3.773l-0.6875,1.87793zm-105.61961,-6.58008l-0.44629,-1.94921c3.89112,-0.89161 7.86915,-1.66846 11.82373,-2.31055l0.32032,1.97461c-3.9126,0.63476 -7.84815,1.40332 -11.69776,2.28515zm82.7627,-0.1455c-3.85645,-0.86914 -7.79492,-1.624 -11.70606,-2.24414l0.31348,-1.97559c3.95313,0.62695 7.93408,1.39014 11.832,2.26855l-0.43942,1.95118zm-59.24463,-3.67041l-0.19336,-1.99024c3.9707,-0.38525 8.01514,-0.64844 12.02051,-0.78174l0.0664,1.999c-3.96337,0.13189 -7.96484,0.39212 -11.89355,0.77298zm35.71289,-0.062c-3.93457,-0.36767 -7.9375,-0.61376 -11.896,-0.73144l0.05957,-1.999c4.00049,0.11914 8.0459,0.36767 12.02247,0.73925l-0.18604,1.99119z"/>
   <circle id="svg_18" fill="#1182c7" r="47" cy="184" cx="343.5"/>
   <circle id="svg_19" fill="#1182c7" r="47" cy="312" cx="525.5"/>
   <circle id="svg_20" fill="#1182c7" r="47" cy="508" cx="468.5"/>
   <circle id="svg_21" fill="#1182c7" r="47" cy="516" cx="242.5"/>
   <circle id="svg_22" fill="#1182c7" r="47" cy="312" cx="174.5"/>
   <path id="svg_23" fill="#fff" d="m363.64098,180.25286l-16.39382,0a5.62074,5.62074 0 0 1 -5.62074,-5.62074l0,-16.39384a0.46838,0.46838 0 0 0 -0.46839,-0.46839l-10.77308,0a7.49432,7.49432 0 0 0 -7.49432,7.49431l0,37.47158a7.49432,7.49432 0 0 0 7.49432,7.49432l26.23015,0a7.49432,7.49432 0 0 0 7.49432,-7.49432l0,-22.01455a0.46839,0.46839 0 0 0 -0.46844,-0.46837zm-10.77308,18.73577l-18.7358,0a1.87358,1.87358 0 1 1 0,-3.74716l18.7358,0a1.87358,1.87358 0 0 1 0,3.74716zm0,-9.3679l-18.7358,0a1.87358,1.87358 0 1 1 0,-3.74716l18.7358,0a1.87358,1.87358 0 1 1 0,3.74716z"/>
   <path id="svg_24" fill="#fff" d="m362.61285,176.10637l-16.84,-16.84a0.2342,0.2342 0 0 0 -0.39931,0.16511l0,15.20058a1.87358,1.87358 0 0 0 1.87358,1.87358l15.20058,0a0.2342,0.2342 0 0 0 0.16511,-0.39931l0.00004,0.00004z"/>
   <path id="svg_25" fill="#fff" d="m475.29796,498.74128a2.49081,2.49081 0 1 0 1.76194,0.72885a2.49079,2.49079 0 0 0 -1.76194,-0.72885z"/>
   <path id="svg_26" fill="#fff" d="m489.16488,488.78086l0,-0.0084a1.9038,1.9038 0 0 0 -1.412,-1.42785c-2.781,-0.67846 -7.156,0.0448 -12.00418,1.98592a38.60712,38.60712 0 0 0 -12.55946,7.953a29.92888,29.92888 0 0 0 -2.7577,3.15713a12.23184,12.23184 0 0 0 -5.466,0.87817c-5.38849,2.37135 -6.92739,8.44016 -7.33708,10.93189a2.3331,2.3331 0 0 0 2.53746,2.70638l0.01213,0l6.00256,-0.65513c0.00747,0.07653 0.01587,0.14652 0.0224,0.21091a3.20656,3.20656 0 0 0 0.9239,1.93366l2.92942,2.93129a3.1982,3.1982 0 0 0 1.93273,0.92484l0.20064,0.02146l-0.65326,5.99509l0,0.01213a2.33308,2.33308 0 0 0 2.08074,2.56068q0.10764,0.01113 0.216,0.01225a2.357,2.357 0 0 0 0.38729,-0.03173c2.50573,-0.40316 8.57175,-1.9234 10.93656,-7.34082a12.34154,12.34154 0 0 0 0.88191,-5.44448a29.37812,29.37812 0 0 0 3.16833,-2.7577a38.32941,38.32941 0 0 0 7.96141,-12.46054c1.93087,-4.79305 2.65786,-9.20071 1.9962,-12.08815zm-9.9912,16.32038a5.48461,5.48461 0 1 1 -0.004,-7.75641l0.004,0.004a5.44076,5.44076 0 0 1 0.05821,7.69417l-0.05821,0.05824z"/>
   <path id="svg_27" fill="#fff" d="m459.72043,520.17299a1.49312,1.49312 0 0 0 -1.02656,0.24917c-0.59634,0.40782 -1.19547,0.811 -1.80021,1.20387a1.39249,1.39249 0 0 1 -1.95979,-1.86647l1.13388,-1.95979a1.49317,1.49317 0 0 0 -1.41478,-2.32468a5.716,5.716 0 0 0 -3.32511,1.62942c-0.34157,0.3425 -1.38026,1.38212 -1.93926,5.3437a33.40138,33.40138 0 0 0 -0.3005,3.4315a1.49316,1.49316 0 0 0 1.45442,1.53094q0.01936,0.0005 0.03875,0.00049l0.03733,0a33.585,33.585 0 0 0 3.4343,-0.29863c3.96344,-0.55994 5.00306,-1.59957 5.34463,-1.94113a5.6451,5.6451 0 0 0 1.62289,-3.33537a1.49317,1.49317 0 0 0 -1.29999,-1.66302z"/>
   <path id="svg_28" fill="#fff" d="m226.32477,541.53986l-3.40531,0a2.554,2.554 0 0 1 -2.554,-2.554l0,-15.32392a2.554,2.554 0 0 1 2.554,-2.554l3.40531,0a2.554,2.554 0 0 1 2.554,2.554l0,15.32392a2.554,2.554 0 0 1 -2.554,2.554z"/>
   <path id="svg_29" fill="#fff" d="m250.16195,541.53986l-3.40531,0a2.554,2.554 0 0 1 -2.554,-2.554l0,-25.53985a2.554,2.554 0 0 1 2.554,-2.554l3.40531,0a2.554,2.554 0 0 1 2.554,2.554l0,25.53985a2.554,2.554 0 0 1 -2.554,2.554z"/>
   <path id="svg_30" fill="#fff" d="m262.08054,541.53986l-3.40531,0a2.554,2.554 0 0 1 -2.554,-2.554l0,-37.45844a2.554,2.554 0 0 1 2.554,-2.554l3.40531,0a2.554,2.554 0 0 1 2.554,2.554l0,37.45844a2.554,2.554 0 0 1 -2.554,2.554z"/>
   <path id="svg_31" fill="#fff" d="m238.24336,541.53986l-3.40526,0a2.554,2.554 0 0 1 -2.554,-2.554l0,-45.97172a2.554,2.554 0 0 1 2.554,-2.554l3.40531,0a2.554,2.554 0 0 1 2.554,2.554l0,45.97172a2.554,2.554 0 0 1 -2.55405,2.554z"/>
   <path id="svg_32" fill="#fff" d="m527.75156,310.7691l-2.43291,-2.43384a2.98172,2.98172 0 0 0 -4.2061,-0.01118l-16.91481,15.6103a3.15889,3.15889 0 0 0 -1.05759,2.14871a2.992,2.992 0 0 0 0.85818,2.23071l3.634,3.67405l0.00652,0.00652a3.00877,3.00877 0 0 0 2.11424,0.87775l0.11,0a3.12884,3.12884 0 0 0 2.159,-1.04081l15.71922,-16.83745a2.98174,2.98174 0 0 0 0.01819,-4.21677l-0.00794,-0.00799z"/>
   <path id="svg_33" fill="#fff" d="m547.30427,305.85017l-0.02888,-0.02888l-3.19325,-3.16064a1.99963,1.99963 0 0 0 -1.42378,-0.5833a2.03966,2.03966 0 0 0 -1.19176,0.38576c0,-0.04007 0.00559,-0.0792 0.00838,-0.11368a3.40623,3.40623 0 0 0 -0.48453,-2.35a24.03891,24.03891 0 0 0 -2.31084,-2.678l-0.00745,-0.00746a25.22236,25.22236 0 0 0 -8.0805,-5.21244a13.00307,13.00307 0 0 0 -4.946,-0.97372a9.426,9.426 0 0 0 -6.03335,2.1133a11.174,11.174 0 0 0 -1.32128,1.51137a1.49087,1.49087 0 0 0 1.73779,2.268a6.9359,6.9359 0 0 1 0.79948,-0.24506a5.91293,5.91293 0 0 1 1.71915,-0.10716a7.22788,7.22788 0 0 1 3.32557,1.21971a4.78951,4.78951 0 0 1 1.70145,3.82873a9.9386,9.9386 0 0 1 -1.86358,3.21282a1.49086,1.49086 0 0 0 0.13511,1.95676l3.20629,3.2063a1.49087,1.49087 0 0 0 2.04994,0.05777c0.90664,-0.80973 2.28755,-2.03038 2.77022,-2.32948a3.4702,3.4702 0 0 1 1.36974,-0.54044a1.78717,1.78717 0 0 1 1.052,0.22177a0.11556,0.11556 0 0 1 -0.02889,0.08852l-0.16958,0.1612l-0.028,0.02609a2.00521,2.00521 0 0 0 -0.00526,2.83579l0.00992,0.0099l3.19232,3.1597a1.99865,1.99865 0 0 0 1.42377,0.58237a2.02193,2.02193 0 0 0 1.41819,-0.57771l5.17144,-5.10808c0.01771,-0.0177 0.03541,-0.03634 0.05218,-0.055a2.03783,2.03783 0 0 0 -0.02601,-2.77481z"/>
   <path id="svg_34" fill="#fff" d="m181.96236,309.20158a1.86559,1.86559 0 0 1 -1.31914,-3.18473l4.27751,-4.27763l-4.27751,-4.27763a1.86555,1.86555 0 0 1 2.63829,-2.63829l5.59677,5.59677a1.8654,1.8654 0 0 1 0,2.63829l-5.59677,5.59677a1.85979,1.85979 0 0 1 -1.31915,0.54645z"/>
   <path id="svg_35" fill="#fff" d="m152.11292,314.79835a1.86553,1.86553 0 0 1 -1.86559,-1.86559l0,-1.86559a11.24925,11.24925 0 0 1 11.188,-11.19354l24.25825,0a1.86559,1.86559 0 1 1 0,3.73118l-24.25271,0a7.507,7.507 0 0 0 -7.46236,7.46794l0,1.86a1.86553,1.86553 0 0 1 -1.86559,1.8656z"/>
   <path id="svg_36" fill="#fff" d="m167.03764,329.72307a1.8598,1.8598 0 0 1 -1.31914,-0.54644l-5.59677,-5.59678a1.86537,1.86537 0 0 1 0,-2.63828l5.59677,-5.59677a1.86555,1.86555 0 0 1 2.63829,2.63828l-4.27752,4.27763l4.27752,4.27763a1.86559,1.86559 0 0 1 -1.31915,3.18473z"/>
   <path id="svg_37" fill="#fff" d="m163.30646,324.1263a1.86559,1.86559 0 0 1 0,-3.73118l24.25264,0a7.507,7.507 0 0 0 7.46236,-7.46794l0,-1.86a1.86559,1.86559 0 0 1 3.73118,0l0,1.86559a11.24925,11.24925 0 0 1 -11.188,11.19354l-24.25818,-0.00001z"/>
  </g>
 </g>
</svg>